<?xml version="1.0" encoding="UTF-8" standalone="no"?>
<svg
   xmlns:dc="http://purl.org/dc/elements/1.1/"
   xmlns:cc="http://creativecommons.org/ns#"
   xmlns:rdf="http://www.w3.org/1999/02/22-rdf-syntax-ns#"
   xmlns:svg="http://www.w3.org/2000/svg"
   xmlns="http://www.w3.org/2000/svg"
   id="svg8"
   version="1.1"
   viewBox="0 0 1227.9963 276.10533"
   height="251.00485mm"
   width="1116.3602mm">
  <defs
     id="defs2" />
  <metadata
     id="metadata5">
    <rdf:RDF>
      <cc:Work
         rdf:about="">
        <dc:format>image/svg+xml</dc:format>
        <dc:type
           rdf:resource="http://purl.org/dc/dcmitype/StillImage" />
        <dc:title></dc:title>
      </cc:Work>
    </rdf:RDF>
  </metadata>
  <g
     transform="translate(68.680005,-3.3646194)"
     id="layer1">
    <g
       id="g4823">
      <path
         style="fill:none;stroke:#001c00;stroke-width:2.93088055;stroke-miterlimit:4;stroke-dasharray:none;stroke-opacity:1"
         d="M 136.22765,194.59138 A 101.72111,83.413139 0 0 1 34.506542,278.00452 101.72111,83.413139 0 0 1 -67.214565,194.59138 101.72111,83.413139 0 0 1 34.506542,111.17825 101.72111,83.413139 0 0 1 136.22765,194.59138 Z"
         id="path828" />
      <path
         style="fill:none;stroke:#001c00;stroke-width:2.58598518;stroke-miterlimit:4;stroke-dasharray:none;stroke-opacity:1"
         d="m -31.003131,239.21725 c -7.722964,-12.91213 -12.193403,-28.21681 -12.193402,-44.62587 2e-6,-46.16304 35.3811448,-83.58558 79.025993,-83.58558 43.644847,0 79.02599,37.42254 79.02599,83.58558 0,16.24866 -4.38347,31.41444 -11.96787,44.24655 m -20.984822,23.67131 c -12.970406,9.86075 -28.880698,15.66773 -46.073298,15.66773 -16.790476,0 -33.5863513,-6.14894 -46.38681,-15.59292"
         id="ellipse830" />
      <path
         style="fill:none;stroke:#001c00;stroke-width:2.02143407;stroke-miterlimit:4;stroke-dasharray:none;stroke-opacity:1"
         d="m -4.9839637,239.57462 c -4.7493371,-12.99897 -7.5008003,-28.43114 -7.5008003,-44.98324 0,-46.31894 21.5464039,-83.86785 48.125236,-83.86785 26.578832,0 48.125237,37.54891 48.125237,83.86785 0,16.47796 -2.726869,31.846 -7.437098,44.80841 m -12.482723,23.15306 c -7.925491,10.00683 -17.670114,15.90639 -28.205416,15.90639 -10.372461,0 -19.978497,-5.71859 -27.8366103,-15.44532"
         id="ellipse832" />
      <path
         style="fill:none;stroke:#001c00;stroke-width:2.64583325;stroke-linecap:butt;stroke-linejoin:miter;stroke-miterlimit:4;stroke-dasharray:none;stroke-opacity:1"
         d="m 34.50654,263.64238 c 3e-6,14.36215 3e-6,14.36215 3e-6,14.36215"
         id="path836" />
      <path
         style="fill:none;stroke:#001c00;stroke-width:3.4395833;stroke-linecap:butt;stroke-linejoin:miter;stroke-miterlimit:4;stroke-dasharray:none;stroke-opacity:1"
         d="m 41.577381,239.54762 -4.157739,-7.9375 3.023809,-3.40179 0.377976,-4.53571 -3.023809,-4.15774 h -2.645833 l -0.755952,-2.64584 3.401785,-1.88988 -5.291667,-4.53571 -9.071427,-0.37798 -7.181548,-6.42559 -0.755952,-11.71726 12.473215,-13.60715 13.607142,6.04762 3.401785,-3.02381 10.583333,2.64584 2.645834,1.88988 -1.511906,3.02381 5.669645,10.96131 3.401785,3.02381 3.023809,0.37797 1.511906,2.64584 -7.9375,17.00892 2.267855,5.29167 -3.779761,4.53571 -0.755952,5.66965 9.449403,-0.37798 2.267858,-8.31547 -1.511903,-1.13393 -1.511906,1.13393 -3.779761,6.42559 h -1.889882 v -7.9375 l -0.377975,-5.29167 14.741069,-28.72619 -3.77976,-4.91369 -2.267858,1.88988 -0.755952,-3.77976 15.119046,1.51191 0.755954,6.80357 2.267858,1.13393 1.889879,7.9375 4.535715,-1.51191 0.755951,-4.53571 5.66964,-4.91369 1.51191,-4.53572 1.5119,4.91369 3.77977,7.18155 1.5119,6.4256 -3.77976,0.37797 9.82738,11.33929 9.07143,3.77976 -2.64584,-4.91369 5.29167,-1.13393 0.75595,-6.42559 -1.88988,-3.02381 -1.13393,-2.26786 -5.66964,6.42559 -6.80357,-5.66964 -1.51191,-2.64583 8.69346,-2.64584 -4.15774,-4.91369 13.22917,-9.07142 -1.13393,-10.20536 2.64583,-3.02381 0.75595,6.04762"
         id="path838" />
      <path
         style="fill:none;stroke:#001c00;stroke-width:3.4395833;stroke-linecap:butt;stroke-linejoin:miter;stroke-miterlimit:4;stroke-dasharray:none;stroke-opacity:1"
         d="m 94.116071,129.17857 -8.315478,-3.77976 -6.047618,4.15774 2.267857,2.64583 -3.401785,1.88988 -6.425596,-6.04762 6.425596,-6.80357 -2.645833,-0.37798 -4.913691,6.4256 2.267858,5.29166 -8.315476,2.64584 -5.669645,7.55952 -3.023809,-3.02381 5.291667,-2.26785 2.267857,-2.64584 -14.363094,-3.02381 -10.205357,2.26786 -6.047619,12.09524 -1.511905,5.29166 4.91369,1.13393 0.377976,3.02381 7.181548,-1.13392 v -3.02382 l 6.425595,-1.88988 -0.377976,-1.5119 -6.047619,1.5119 -3.401787,-2.26785 4.157739,-7.18155 2.267858,2.26786 -3.779764,3.40178 0.755954,3.02381 1.88988,-2.64583 -6.047619,7.18155 -6.80357,4.53571 -3.779763,1.88988 -3.401785,-1.5119 -1.511905,-5.29167 -2.645833,3.02381 -2.267857,-1.5119 -2.645834,5.29166 4.157738,3.02381 3.02381,-5.29167 2.645833,2.26786 -5.291667,-0.75595 4.535715,3.40179 -0.755952,4.15773 1.511904,1.51191 -0.755952,3.40178 h -6.047619 l 1.889881,7.18155 9.071429,-6.04762 1.133927,3.40179 7.559525,-8.69346 3.023809,4.53572 2.267857,3.77976 -4.157739,4.53571 -5.669642,-1.5119 1.889881,-4.53571 3.023809,-2.26786 1.13393,2.64583 -1.889881,2.64583 -1.889882,-1.13392 -0.755952,-4.53572 6.047619,0.75595 0.377975,4.53572 6.425597,1.13393 1.133928,-5.29167 -0.377976,-1.88988 3.023809,-5.29167 1.13393,2.26786 3.779761,-1.13393 5.291666,5.29167 -7.559524,-1.13393 -1.133927,-2.26786 2.645833,-0.37797 -2.645833,2.64583 -3.023809,1.5119 1.889879,-3.02381 -4.535713,7.55953 5.291667,3.02381 1.133927,-1.88988 0.755952,0.37797 v 5.66965 l 3.401787,4.91369 4.913689,9.07143 2.267857,2.26785 h 6.425597"
         id="path840" />
      <path
         style="fill:none;stroke:#001c00;stroke-width:3.4395833;stroke-linecap:butt;stroke-linejoin:miter;stroke-miterlimit:4;stroke-dasharray:none;stroke-opacity:1"
         d="m 77.107142,173.02381 v -5.29167 0 l 1.13393,-0.37798 0.755951,5.66965 h -0.377976 l -1.511905,-4.53572 -4.157737,0.37798 -0.755954,-2.26786 -2.645834,3.40179 0.377976,7.9375 4.157739,-0.75596 -2.645833,-6.42559 1.133928,-1.51191"
         id="path842" />
      <path
         style="fill:none;stroke:#001c00;stroke-width:3.4395833;stroke-linecap:butt;stroke-linejoin:miter;stroke-miterlimit:4;stroke-dasharray:none;stroke-opacity:1"
         d="m -5.2916666,239.54762 3.0238095,-4.91369 0.3779762,-2.64584 v -3.02381 l 3.7797618,-3.77976 -10.5833332,-7.18155 -2.6458337,-0.75595 -2.645833,-5.29167 h -4.535714 l -0.377976,-6.04761 -5.669643,-0.37798 -4.91369,-1.51191 -7.181548,5.66965 1.511905,5.66964 -2.645833,3.40179 3.779761,8.31547 2.267857,6.80357 3.779761,1.51191 -0.755951,3.77976"
         id="path844" />
      <path
         style="fill:none;stroke:#001c00;stroke-width:3.4395833;stroke-linecap:butt;stroke-linejoin:miter;stroke-miterlimit:4;stroke-dasharray:none;stroke-opacity:1"
         d="m -66.901784,191.16666 3.779761,3.40179 3.779763,1.13393 3.401785,3.77976 8.693451,5.66964 3.02381,1.88988 4.535714,-1.13392 v -1.88989 l -2.267857,-1.88988 v -5.66964 l -3.779761,1.51191 -4.913691,-3.02381 3.02381,-5.66965 h 6.047618 l 1.889882,6.80357 17.386904,5.66965 3.401786,0.37797 -17.00893,-7.55952 4.535715,-2.26786 -1.133927,-1.13393 -4.913691,1.13393 -2.267857,-3.40178 7.559524,-6.4256 -1.13393,-4.91369 3.401787,-2.26786 1.133928,0.37798 -0.377976,-4.53571 12.095238,-7.55953 -10.583332,-14.36309 -7.181549,-4.15774 -0.755951,6.42559 -1.889882,8.31548 h -1.13393 l -5.291667,-3.40179 -3.77976,-1.88987 -2.267858,-3.02382 6.047618,-6.42559 7.559524,3.77976 v -10.20535 l -5.291666,4.91368 10.583333,4.91369 7.937501,-9.82737 -7.181547,-5.66965 -0.377978,-0.75595"
         id="path846" />
      <path
         style="fill:none;stroke:#001c00;stroke-width:3.4395833;stroke-linecap:butt;stroke-linejoin:miter;stroke-miterlimit:4;stroke-dasharray:none;stroke-opacity:1"
         d="m -20.410714,125.77678 2.645833,12.09524 4.535714,10.58333 6.8035719,1.88989 1.1339285,-7.18155 10.5833332,-4.15774 6.0476194,9.07143 6.425595,-5.29167 -3.02381,-3.77976 -7.1815472,3.40179 -1.8898811,-3.40179 5.6696433,-12.09524 V 122.375 l -0.377977,-6.80357"
         id="path848" />
      <path
         style="fill:none;stroke:#001c00;stroke-width:2.64583325;stroke-linecap:butt;stroke-linejoin:miter;stroke-miterlimit:4;stroke-dasharray:none;stroke-opacity:1"
         d="m 53.672618,112.16964 -0.889587,-7.00206 -8.808093,-3.29108 c -0.250673,-3.232555 -3.97585,-6.598749 -1.420193,-9.564039 -3.532008,2.151355 -7.811397,3.519489 -11.938673,3.982182 l -2.355638,7.716087 c 1.775466,2.69933 -3.130806,1.92416 -0.820801,5.55893 l -8.162847,0.7101 v -2.26786 l 6.047619,-2.64583 -6.047619,-1.88988 1.511904,-3.40179 c 0,0 -0.03699,2.03466 -1.553827,2.06544 -4.899743,0.0994 -9.8592926,-5.552572 -11.2744349,-9.64789 3.7443049,-5.495811 12.8465309,-6.842441 14.0997589,1.981594 2.588225,0.284531 10.816549,2.232408 1.863019,2.57705 L 31.75,96.672618"
         id="path850" />
      <path
         style="fill:none;stroke:#001c00;stroke-width:5.82083321;stroke-linecap:butt;stroke-linejoin:miter;stroke-miterlimit:4;stroke-dasharray:none;stroke-opacity:1"
         d="M 47.436011,103.2872 C 47.587247,96.974939 45.670539,94.175886 42.900296,91.758928 49.197157,88.287613 55.048797,83.001335 54.806547,75.505951 104.6364,73.994046 103.06151,74.372023 117.3616,39.976189 L 115.50574,38.131898 86.367559,54.150297 C 85.86359,47.59871 85.54861,40.480158 77.485117,36.196428 86.682538,26.999008 86.808531,24.038194 86.934523,15.407738 72.125519,9.4374191 61.23762,13.441949 53.48363,25.613094 l 13.040178,8.504465 c 0.369557,5.098469 -3.958303,8.415193 -7.559524,11.528272 L 49.892857,33.550595 51.40476,13.895833 C 43.278272,25.67609 4.9136896,44.070931 44.034226,61.709819 L 43.46726,66.812498 C 35.841142,69.96203 29.787427,74.605346 32.127976,87.223213 l -3.401786,7.9375"
         id="path852" />
      <path
         style="fill:#001c00;fill-opacity:1;stroke:#001c00;stroke-width:0;stroke-miterlimit:4;stroke-dasharray:none;stroke-opacity:1"
         d="m 22.85806,95.165787 c -5.87993,-0.662704 -8.14433,-0.304782 -5.953125,5.575143 -5.266365,0.54179 -9.4636949,-10.367109 -6.621298,-9.183282 7.73067,3.219738 5.171462,-4.38494 -0.06044,-0.09612 7.554023,-7.54674 15.694561,4.049108 12.634863,3.704262 z"
         id="path854" />
      <path
         transform="matrix(0.98883584,0.14900897,-0.36923634,0.92933553,0,0)"
         style="fill:none;stroke:#001c00;stroke-width:0.37147516;stroke-miterlimit:4;stroke-dasharray:none;stroke-opacity:1"
         d="m 71.727333,75.595932 a 1.5481795,1.9724127 0 0 1 -1.54818,1.972413 1.5481795,1.9724127 0 0 1 -1.548179,-1.972413 1.5481795,1.9724127 0 0 1 1.548179,-1.972413 1.5481795,1.9724127 0 0 1 1.54818,1.972413 z"
         id="path856" />
      <path
         transform="matrix(0.99092434,0.13442079,-0.40378169,0.91485537,0,0)"
         style="fill:#001c00;fill-opacity:1;stroke:#001c00;stroke-width:0.13313417;stroke-miterlimit:4;stroke-dasharray:none;stroke-opacity:1"
         d="m 73.560181,78.558929 a 0.57962096,0.67669761 0 0 1 -0.579621,0.676698 0.57962096,0.67669761 0 0 1 -0.579621,-0.676698 0.57962096,0.67669761 0 0 1 0.579621,-0.676697 0.57962096,0.67669761 0 0 1 0.579621,0.676697 z"
         id="ellipse858" />
      <path
         transform="matrix(0.99092434,0.13442079,-0.40378169,0.91485537,0,0)"
         style="fill:#001c00;fill-opacity:1;stroke:#001c00;stroke-width:0.13313417;stroke-miterlimit:4;stroke-dasharray:none;stroke-opacity:1"
         d="m 52.084431,92.377647 a 0.57962096,0.67669761 0 0 1 -0.579621,0.676698 0.57962096,0.67669761 0 0 1 -0.579621,-0.676698 0.57962096,0.67669761 0 0 1 0.579621,-0.676697 0.57962096,0.67669761 0 0 1 0.579621,0.676697 z"
         id="ellipse861" />
      <path
         style="fill:none;fill-opacity:1;stroke:#001c00;stroke-width:0.79374999;stroke-miterlimit:4;stroke-dasharray:none;stroke-opacity:1"
         d="M 10.062443,89.370022 8.5526249,94.676967 C 7.4776811,93.303811 5.8041749,91.810941 1.2027129,89.732481 4.0220175,89.307649 5.8876827,89.06717 10.062443,89.370022 Z"
         id="rect863" />
      <path
         id="path866"
         d="m 34.035365,86.78978 c 0.833723,1.364377 2.403836,3.278454 6.11153,6.071213 -0.679734,0.252925 -2.639005,-2.992538 -3.503698,-2.405314 -1.21442,0.824727 -2.31487,2.788082 -4.286486,4.981377 0.449729,-2.815441 0.124617,-4.76072 1.678654,-8.647276 z"
         style="fill:none;fill-opacity:1;stroke:#001c00;stroke-width:0.79374999;stroke-miterlimit:4;stroke-dasharray:none;stroke-opacity:1" />
      <path
         style="fill:none;stroke:#001c00;stroke-width:2.07209468;stroke-miterlimit:4;stroke-dasharray:none;stroke-opacity:1"
         d="m 110.14082,243.01563 c -5.3844,5.82793 -18.794918,15.90133 -18.794918,15.90133 l -112.428152,0.24189 c -6.373449,-4.27059 -15.142187,-10.77054 -19.465503,-16.14322 z"
         id="ellipse868" />
      <path
         style="fill:none;stroke:#001c00;stroke-width:2.11666656;stroke-linecap:butt;stroke-linejoin:miter;stroke-miterlimit:4;stroke-dasharray:none;stroke-opacity:1"
         d="M -51.350134,239.32421 H 120.36322"
         id="path881" />
      <path
         style="fill:none;stroke:#001c00;stroke-width:2.11666656;stroke-linecap:butt;stroke-linejoin:miter;stroke-miterlimit:4;stroke-dasharray:none;stroke-opacity:1"
         d="M -24.418072,262.58405 H 93.431155"
         id="path883" />
      <path
         id="path885"
         d="m 34.50654,111.17824 c 3e-6,127.08764 3e-6,127.08764 3e-6,127.08764"
         style="fill:none;stroke:#001c00;stroke-width:2.64583325;stroke-linecap:butt;stroke-linejoin:miter;stroke-miterlimit:4;stroke-dasharray:none;stroke-opacity:1" />
      <g
         aria-label="ECJP"
         style="font-style:normal;font-weight:normal;font-size:12.27342987px;line-height:1.25;font-family:sans-serif;letter-spacing:0px;word-spacing:0px;fill:#000000;fill-opacity:1;stroke:#001c00;stroke-width:0.30683574;stroke-opacity:1"
         id="text915">
        <path
           d="m 18.75703,255.48036 v -8.78557 h 6.514267 v 1.48624 h -4.740373 v 1.94769 h 4.410764 v 1.48024 h -4.410764 v 2.39116 h 4.908173 v 1.48024 z"
           style="font-style:normal;font-variant:normal;font-weight:bold;font-stretch:normal;font-family:Arial;-inkscape-font-specification:'Arial Bold';stroke:#001c00;stroke-width:0.30683574;stroke-opacity:1"
           id="path4612" />
        <path
           d="m 32.576625,252.2502 1.719958,0.54535 q -0.395531,1.43829 -1.318435,2.13946 -0.916912,0.69517 -2.331233,0.69517 -1.749922,0 -2.876585,-1.19258 -1.126662,-1.19858 -1.126662,-3.27212 0,-2.19339 1.132655,-3.40395 1.132656,-1.21656 2.978464,-1.21656 1.612087,0 2.618891,0.95287 0.599289,0.56333 0.898933,1.61808 l -1.755915,0.4195 q -0.155815,-0.68319 -0.653225,-1.07872 -0.491416,-0.39553 -1.198577,-0.39553 -0.97684,0 -1.588115,0.70117 -0.605281,0.70116 -0.605281,2.2713 0,1.66602 0.599289,2.37318 0.599288,0.70716 1.55815,0.70716 0.70716,0 1.216556,-0.44946 0.509395,-0.44947 0.731132,-1.41432 z"
           style="font-style:normal;font-variant:normal;font-weight:bold;font-stretch:normal;font-family:Arial;-inkscape-font-specification:'Arial Bold';stroke:#001c00;stroke-width:0.30683574;stroke-opacity:1"
           id="path4614" />
        <path
           d="m 38.995004,246.69479 h 1.767901 v 5.5614 q 0,1.0907 -0.191772,1.67801 -0.257694,0.76709 -0.93489,1.23453 -0.677196,0.46145 -1.78588,0.46145 -1.300456,0 -2.001624,-0.72514 -0.701168,-0.73113 -0.70716,-2.13946 l 1.672015,-0.19177 q 0.02996,0.75511 0.221736,1.06674 0.287659,0.47343 0.874962,0.47343 0.593295,0 0.839004,-0.3356 0.245708,-0.34159 0.245708,-1.40833 z"
           style="font-style:normal;font-variant:normal;font-weight:bold;font-stretch:normal;font-family:Arial;-inkscape-font-specification:'Arial Bold';stroke:#001c00;stroke-width:0.30683574;stroke-opacity:1"
           id="path4616" />
        <path
           d="m 42.656658,255.48036 v -8.78557 h 2.84662 q 1.618079,0 2.109496,0.13185 0.755104,0.19776 1.264499,0.86297 0.509395,0.65922 0.509395,1.70797 0,0.80904 -0.293651,1.36039 -0.293652,0.55134 -0.749111,0.86897 -0.449466,0.31163 -0.916911,0.41351 -0.635246,0.12585 -1.839816,0.12585 h -1.156627 v 3.31406 z m 1.773894,-7.29933 v 2.49304 h 0.970847 q 1.048755,0 1.402336,-0.13784 0.35358,-0.13784 0.551345,-0.43149 0.203758,-0.29365 0.203758,-0.68319 0,-0.47943 -0.281666,-0.79106 -0.281665,-0.31163 -0.713153,-0.38953 -0.317623,-0.0599 -1.276485,-0.0599 z"
           style="font-style:normal;font-variant:normal;font-weight:bold;font-stretch:normal;font-family:Arial;-inkscape-font-specification:'Arial Bold';stroke:#001c00;stroke-width:0.30683574;stroke-opacity:1"
           id="path4618" />
      </g>
    </g>
    <g
       transform="translate(-43.270241,24.492111)"
       id="g4794">
      <g
         aria-label="THE ECUMENICAL CENTRE"
         style="font-style:normal;font-weight:normal;font-size:73.73795319px;line-height:1.25;font-family:sans-serif;letter-spacing:0px;word-spacing:0px;fill:#1a1a1a;fill-opacity:1;stroke:none;stroke-width:1.84344876"
         id="text4667">
        <path
           d="M 240.93262,114.67137 V 70.817452 h -15.66211 v -8.929205 h 41.94566 v 8.929205 h -15.62611 v 43.853918 z"
           style="font-style:normal;font-variant:normal;font-weight:bold;font-stretch:normal;font-family:Arial;-inkscape-font-specification:'Arial Bold';fill:#1a1a1a;stroke:none;stroke-width:1.84344876"
           id="path4716" />
        <path
           d="M 274.16511,114.67137 V 61.888247 h 10.65744 v 20.774804 h 20.88281 V 61.888247 H 316.3628 V 114.67137 H 305.70536 V 91.592256 h -20.88281 v 23.079114 z"
           style="font-style:normal;font-variant:normal;font-weight:bold;font-stretch:normal;font-family:Arial;-inkscape-font-specification:'Arial Bold';fill:#1a1a1a;stroke:none;stroke-width:1.84344876"
           id="path4718" />
        <path
           d="M 327.4163,114.67137 V 61.888247 h 39.13728 v 8.929205 h -28.47984 v 11.70158 h 26.49957 v 8.8932 h -26.49957 v 14.365938 h 29.48798 v 8.8932 z"
           style="font-style:normal;font-variant:normal;font-weight:bold;font-stretch:normal;font-family:Arial;-inkscape-font-specification:'Arial Bold';fill:#1a1a1a;stroke:none;stroke-width:1.84344876"
           id="path4720" />
        <path
           d="M 397.1217,114.67137 V 61.888247 h 39.13728 v 8.929205 h -28.47984 v 11.70158 h 26.49957 v 8.8932 h -26.49957 v 14.365938 h 29.48798 v 8.8932 z"
           style="font-style:normal;font-variant:normal;font-weight:bold;font-stretch:normal;font-family:Arial;-inkscape-font-specification:'Arial Bold';fill:#1a1a1a;stroke:none;stroke-width:1.84344876"
           id="path4722" />
        <path
           d="m 480.14891,95.264752 10.33339,3.276442 q -2.37632,8.641166 -7.92106,12.853736 -5.50875,4.17656 -14.00589,4.17656 -10.51342,0 -17.28234,-7.16496 -6.76891,-7.20098 -6.76891,-19.658658 0,-13.177778 6.80492,-20.45076 6.80492,-7.308987 17.89441,-7.308987 9.68531,0 15.73413,5.724773 3.60048,3.384457 5.40073,9.721312 l -10.54943,2.52034 q -0.93612,-4.104554 -3.92453,-6.480874 -2.9524,-2.376321 -7.20097,-2.376321 -5.86879,0 -9.54129,4.212568 -3.63649,4.212569 -3.63649,13.645842 0,10.009351 3.60049,14.257925 3.60048,4.24857 9.36126,4.24857 4.24857,0 7.30899,-2.70036 3.06041,-2.70037 4.39259,-8.497148 z"
           style="font-style:normal;font-variant:normal;font-weight:bold;font-stretch:normal;font-family:Arial;-inkscape-font-specification:'Arial Bold';fill:#1a1a1a;stroke:none;stroke-width:1.84344876"
           id="path4724" />
        <path
           d="m 499.59153,61.888247 h 10.65744 v 28.587859 q 0,6.804918 0.39605,8.82119 0.68409,3.240434 3.24044,5.220704 2.59235,1.94426 7.05695,1.94426 4.53661,0 6.84092,-1.83624 2.30431,-1.87226 2.77238,-4.57262 0.46806,-2.700366 0.46806,-8.965212 V 61.888247 h 10.65744 v 27.723742 q 0,9.505283 -0.86412,13.429811 -0.86411,3.92453 -3.20443,6.6249 -2.30431,2.70036 -6.19284,4.32058 -3.88852,1.58421 -10.15337,1.58421 -7.56102,0 -11.48555,-1.72823 -3.88852,-1.76424 -6.15683,-4.53661 -2.2683,-2.80838 -2.9884,-5.86879 -1.04414,-4.536617 -1.04414,-13.393813 z"
           style="font-style:normal;font-variant:normal;font-weight:bold;font-stretch:normal;font-family:Arial;-inkscape-font-specification:'Arial Bold';fill:#1a1a1a;stroke:none;stroke-width:1.84344876"
           id="path4726" />
        <path
           d="M 552.80672,114.67137 V 61.888247 h 15.95015 l 9.57729,36.00486 9.46928,-36.00486 h 15.98616 v 52.783123 h -9.90134 V 73.121763 L 583.41085,114.67137 H 573.14946 L 562.70805,73.121763 v 41.549607 z"
           style="font-style:normal;font-variant:normal;font-weight:bold;font-stretch:normal;font-family:Arial;-inkscape-font-specification:'Arial Bold';fill:#1a1a1a;stroke:none;stroke-width:1.84344876"
           id="path4728" />
        <path
           d="M 614.44705,114.67137 V 61.888247 h 39.13728 v 8.929205 h -28.47985 v 11.70158 h 26.49958 v 8.8932 h -26.49958 v 14.365938 h 29.48798 v 8.8932 z"
           style="font-style:normal;font-variant:normal;font-weight:bold;font-stretch:normal;font-family:Arial;-inkscape-font-specification:'Arial Bold';fill:#1a1a1a;stroke:none;stroke-width:1.84344876"
           id="path4730" />
        <path
           d="M 663.8097,114.67137 V 61.888247 h 10.3694 l 21.60291,35.248758 V 61.888247 h 9.90134 V 114.67137 H 694.98991 L 673.71104,80.250725 v 34.420645 z"
           style="font-style:normal;font-variant:normal;font-weight:bold;font-stretch:normal;font-family:Arial;-inkscape-font-specification:'Arial Bold';fill:#1a1a1a;stroke:none;stroke-width:1.84344876"
           id="path4732" />
        <path
           d="M 716.66484,114.67137 V 61.888247 h 10.65744 v 52.783123 z"
           style="font-style:normal;font-variant:normal;font-weight:bold;font-stretch:normal;font-family:Arial;-inkscape-font-specification:'Arial Bold';fill:#1a1a1a;stroke:none;stroke-width:1.84344876"
           id="path4734" />
        <path
           d="m 771.21219,95.264752 10.33339,3.276442 q -2.37632,8.641166 -7.92107,12.853736 -5.50874,4.17656 -14.00589,4.17656 -10.51342,0 -17.28233,-7.16496 -6.76891,-7.20098 -6.76891,-19.658658 0,-13.177778 6.80492,-20.45076 6.80491,-7.308987 17.89441,-7.308987 9.68531,0 15.73412,5.724773 3.60049,3.384457 5.40073,9.721312 l -10.54942,2.52034 q -0.93613,-4.104554 -3.92453,-6.480874 -2.9524,-2.376321 -7.20097,-2.376321 -5.86879,0 -9.54129,4.212568 -3.63649,4.212569 -3.63649,13.645842 0,10.009351 3.60049,14.257925 3.60048,4.24857 9.36126,4.24857 4.24857,0 7.30899,-2.70036 3.06041,-2.70037 4.39259,-8.497148 z"
           style="font-style:normal;font-variant:normal;font-weight:bold;font-stretch:normal;font-family:Arial;-inkscape-font-specification:'Arial Bold';fill:#1a1a1a;stroke:none;stroke-width:1.84344876"
           id="path4736" />
        <path
           d="m 838.32529,114.67137 h -11.59357 l -4.60862,-11.98962 h -21.09885 l -4.35659,11.98962 h -11.30552 l 20.55877,-52.783123 h 11.26952 z m -19.62265,-20.882817 -7.27298,-19.586644 -7.12897,19.586644 z"
           style="font-style:normal;font-variant:normal;font-weight:bold;font-stretch:normal;font-family:Arial;-inkscape-font-specification:'Arial Bold';fill:#1a1a1a;stroke:none;stroke-width:1.84344876"
           id="path4738" />
        <path
           d="M 844.30207,114.67137 V 62.320305 h 10.65744 v 43.457865 h 26.49958 v 8.8932 z"
           style="font-style:normal;font-variant:normal;font-weight:bold;font-stretch:normal;font-family:Arial;-inkscape-font-specification:'Arial Bold';fill:#1a1a1a;stroke:none;stroke-width:1.84344876"
           id="path4740" />
        <path
           d="m 942.01926,95.264752 10.33339,3.276442 q -2.37632,8.641166 -7.92107,12.853736 -5.50874,4.17656 -14.00589,4.17656 -10.51342,0 -17.28233,-7.16496 -6.76892,-7.20098 -6.76892,-19.658658 0,-13.177778 6.80492,-20.45076 6.80492,-7.308987 17.89442,-7.308987 9.68531,0 15.73412,5.724773 3.60049,3.384457 5.40073,9.721312 l -10.54942,2.52034 q -0.93613,-4.104554 -3.92453,-6.480874 -2.9524,-2.376321 -7.20097,-2.376321 -5.8688,0 -9.54129,4.212568 -3.63649,4.212569 -3.63649,13.645842 0,10.009351 3.60048,14.257925 3.60049,4.24857 9.36127,4.24857 4.24857,0 7.30898,-2.70036 3.06042,-2.70037 4.3926,-8.497148 z"
           style="font-style:normal;font-variant:normal;font-weight:bold;font-stretch:normal;font-family:Arial;-inkscape-font-specification:'Arial Bold';fill:#1a1a1a;stroke:none;stroke-width:1.84344876"
           id="path4742" />
        <path
           d="M 961.53387,114.67137 V 61.888247 h 39.13733 v 8.929205 h -28.47989 v 11.70158 h 26.49957 v 8.8932 h -26.49957 v 14.365938 h 29.48799 v 8.8932 z"
           style="font-style:normal;font-variant:normal;font-weight:bold;font-stretch:normal;font-family:Arial;-inkscape-font-specification:'Arial Bold';fill:#1a1a1a;stroke:none;stroke-width:1.84344876"
           id="path4744" />
        <path
           d="M 1010.8966,114.67137 V 61.888247 h 10.3694 l 21.6029,35.248758 V 61.888247 h 9.9013 v 52.783123 h -10.6934 l -21.2789,-34.420645 v 34.420645 z"
           style="font-style:normal;font-variant:normal;font-weight:bold;font-stretch:normal;font-family:Arial;-inkscape-font-specification:'Arial Bold';fill:#1a1a1a;stroke:none;stroke-width:1.84344876"
           id="path4746" />
        <path
           d="M 1075.9573,114.67137 V 70.817452 h -15.6621 v -8.929205 h 41.9457 v 8.929205 h -15.6261 v 43.853918 z"
           style="font-style:normal;font-variant:normal;font-weight:bold;font-stretch:normal;font-family:Arial;-inkscape-font-specification:'Arial Bold';fill:#1a1a1a;stroke:none;stroke-width:1.84344876"
           id="path4748" />
        <path
           d="M 1109.1898,114.67137 V 61.888247 h 22.431 q 8.4612,0 12.2777,1.440194 3.8525,1.40419 6.1568,5.040681 2.3043,3.63649 2.3043,8.317122 0,5.940802 -3.4924,9.829327 -3.4925,3.85252 -10.4414,4.860656 3.4564,2.016272 5.6887,4.428598 2.2683,2.412325 6.0848,8.569155 l 6.4449,10.29739 h -12.7457 l -7.705,-11.48555 q -4.1046,-6.15683 -5.6168,-7.741044 -1.5122,-1.620218 -3.2044,-2.196296 -1.6923,-0.612083 -5.3648,-0.612083 h -2.1603 v 22.034973 z m 10.6574,-30.46011 h 7.8851 q 7.669,0 9.5773,-0.648088 1.9083,-0.648087 2.9884,-2.232301 1.0802,-1.584214 1.0802,-3.960534 0,-2.66436 -1.4402,-4.284579 -1.4042,-1.656223 -3.9966,-2.088282 -1.2962,-0.180024 -7.777,-0.180024 h -8.3172 z"
           style="font-style:normal;font-variant:normal;font-weight:bold;font-stretch:normal;font-family:Arial;-inkscape-font-specification:'Arial Bold';fill:#1a1a1a;stroke:none;stroke-width:1.84344876"
           id="path4750" />
        <path
           d="M 1162.441,114.67137 V 61.888247 h 39.1373 v 8.929205 h -28.4798 v 11.70158 h 26.4995 v 8.8932 h -26.4995 v 14.365938 h 29.488 v 8.8932 z"
           style="font-style:normal;font-variant:normal;font-weight:bold;font-stretch:normal;font-family:Arial;-inkscape-font-specification:'Arial Bold';fill:#1a1a1a;stroke:none;stroke-width:1.84344876"
           id="path4752" />
      </g>
      <g
         aria-label="FOR JUSTICE AND PEACE"
         style="font-style:normal;font-weight:normal;font-size:78.5758667px;line-height:1.25;font-family:sans-serif;letter-spacing:0px;word-spacing:0px;fill:#1a1a1a;fill-opacity:1;stroke:none;stroke-width:1.96439648"
         id="text4671">
        <path
           d="m 225.91305,218.46971 v -56.2462 h 37.94509 v 6.63751 h -30.50186 v 17.41868 h 26.39658 v 6.63751 h -26.39658 v 25.5525 z"
           style="font-style:normal;font-variant:normal;font-weight:normal;font-stretch:normal;font-family:Arial;-inkscape-font-specification:Arial;fill:#1a1a1a;stroke:none;stroke-width:1.96439648"
           id="path4679" />
        <path
           d="m 271.30136,191.07559 q 0,-14.004 7.51995,-21.90763 7.51996,-7.942 19.41377,-7.942 7.78852,0 14.04237,3.72162 6.25384,3.72161 9.51504,10.39749 3.29957,6.63751 3.29957,15.07827 0,8.55587 -3.45304,15.30849 -3.45304,6.75261 -9.78361,10.24402 -6.33058,3.45304 -13.6587,3.45304 -7.94199,0 -14.19583,-3.83671 -6.25384,-3.83672 -9.47668,-10.47423 -3.22284,-6.63751 -3.22284,-14.04236 z m 7.67342,0.1151 q 0,10.16728 5.44813,16.03745 5.4865,5.83181 13.73543,5.83181 8.4024,0 13.81217,-5.90854 5.44813,-5.90854 5.44813,-16.76643 0,-6.86772 -2.34039,-11.97054 -2.30203,-5.1412 -6.79099,-7.942 -4.45058,-2.83917 -10.01381,-2.83917 -7.90363,0 -13.62033,5.44814 -5.67834,5.40976 -5.67834,18.10928 z"
           style="font-style:normal;font-variant:normal;font-weight:normal;font-stretch:normal;font-family:Arial;-inkscape-font-specification:Arial;fill:#1a1a1a;stroke:none;stroke-width:1.96439648"
           id="path4681" />
        <path
           d="m 334.76058,218.46971 v -56.2462 h 24.93863 q 7.51996,0 11.4334,1.53468 3.91345,1.49632 6.25384,5.33303 2.3404,3.83672 2.3404,8.47914 0,5.98527 -3.87508,10.09055 -3.87508,4.10528 -11.97054,5.21793 2.95426,1.41958 4.48895,2.8008 3.2612,2.99264 6.17711,7.48159 l 9.78361,15.30848 h -9.36158 l -7.44322,-11.70197 q -3.2612,-5.06446 -5.37139,-7.75016 -2.1102,-2.6857 -3.79835,-3.75998 -1.64979,-1.07428 -3.37631,-1.49632 -1.26611,-0.26857 -4.14365,-0.26857 h -8.6326 v 24.977 z m 7.44322,-31.42267 h 15.99909 q 5.10283,0 7.98036,-1.03591 2.87754,-1.07428 4.37386,-3.37631 1.49631,-2.3404 1.49631,-5.06446 0,-3.99018 -2.9159,-6.56078 -2.87753,-2.5706 -9.13137,-2.5706 H 342.2038 Z"
           style="font-style:normal;font-variant:normal;font-weight:normal;font-stretch:normal;font-family:Arial;-inkscape-font-specification:Arial;fill:#1a1a1a;stroke:none;stroke-width:1.96439648"
           id="path4683" />
        <path
           d="m 409.42299,202.50899 6.71425,-0.92081 q 0.26857,6.44567 2.41713,8.82444 2.14856,2.37876 5.9469,2.37876 2.8008,0 4.83426,-1.26612 2.03346,-1.30448 2.8008,-3.49141 0.76734,-2.22529 0.76734,-7.05955 v -38.75079 h 7.44322 v 38.32876 q 0,7.05955 -1.72652,10.93463 -1.68815,3.87507 -5.40976,5.90853 -3.68325,2.03346 -8.67097,2.03346 -7.40486,0 -11.35667,-4.25875 -3.91345,-4.25875 -3.75998,-12.66115 z"
           style="font-style:normal;font-variant:normal;font-weight:normal;font-stretch:normal;font-family:Arial;-inkscape-font-specification:Arial;fill:#1a1a1a;stroke:none;stroke-width:1.96439648"
           id="path4685" />
        <path
           d="m 489.41844,162.22351 h 7.44322 v 32.49695 q 0,8.47914 -1.91835,13.46686 -1.91836,4.98773 -6.94445,8.13383 -4.98773,3.10774 -13.12156,3.10774 -7.90362,0 -12.92972,-2.72407 -5.02609,-2.72406 -7.17465,-7.86526 -2.14856,-5.17956 -2.14856,-14.1191 v -32.49695 h 7.44322 v 32.45859 q 0,7.32812 1.34285,10.81952 1.38122,3.45304 4.68079,5.33303 3.33794,1.87999 8.13383,1.87999 8.21057,0 11.70197,-3.72161 3.49141,-3.72161 3.49141,-14.31093 z"
           style="font-style:normal;font-variant:normal;font-weight:normal;font-stretch:normal;font-family:Arial;-inkscape-font-specification:Arial;fill:#1a1a1a;stroke:none;stroke-width:1.96439648"
           id="path4687" />
        <path
           d="m 506.7604,200.3988 7.02118,-0.61388 q 0.49877,4.22039 2.30203,6.94445 1.84162,2.6857 5.67833,4.37385 3.83671,1.64979 8.6326,1.64979 4.25875,0 7.51996,-1.26611 3.26121,-1.26612 4.83426,-3.45305 1.61142,-2.22529 1.61142,-4.83425 0,-2.64733 -1.53469,-4.60406 -1.53468,-1.99509 -5.06446,-3.33794 -2.26366,-0.88244 -10.01382,-2.72406 -7.75016,-1.87999 -10.85789,-3.52978 -4.02855,-2.11019 -6.02364,-5.21793 -1.95672,-3.1461 -1.95672,-7.02118 0,-4.25875 2.41712,-7.942 2.41713,-3.72161 7.05955,-5.63996 4.64243,-1.91836 10.32076,-1.91836 6.25384,0 11.01136,2.03346 4.7959,1.99509 7.36649,5.90854 2.5706,3.91344 2.76244,8.8628 l -7.13629,0.53714 q -0.57551,-5.33303 -3.91345,-8.05709 -3.29957,-2.72407 -9.78361,-2.72407 -6.75262,0 -9.86035,2.49386 -3.06937,2.4555 -3.06937,5.94691 0,3.031 2.18692,4.98772 2.14856,1.95673 11.2032,4.02855 9.09301,2.03346 12.46932,3.56814 4.91099,2.26366 7.25138,5.75507 2.3404,3.45304 2.3404,7.98036 0,4.48896 -2.5706,8.47914 -2.5706,3.95181 -7.40485,6.1771 -4.79589,2.18693 -10.81953,2.18693 -7.63506,0 -12.81462,-2.22529 -5.1412,-2.2253 -8.09546,-6.67588 -2.9159,-4.48896 -3.06937,-10.12892 z"
           style="font-style:normal;font-variant:normal;font-weight:normal;font-stretch:normal;font-family:Arial;-inkscape-font-specification:Arial;fill:#1a1a1a;stroke:none;stroke-width:1.96439648"
           id="path4689" />
        <path
           d="m 576.08977,218.46971 v -49.60869 h -18.53132 v -6.63751 h 44.5826 v 6.63751 h -18.60806 v 49.60869 z"
           style="font-style:normal;font-variant:normal;font-weight:normal;font-stretch:normal;font-family:Arial;-inkscape-font-specification:Arial;fill:#1a1a1a;stroke:none;stroke-width:1.96439648"
           id="path4691" />
        <path
           d="m 611.08059,218.46971 v -56.2462 h 7.44322 v 56.2462 z"
           style="font-style:normal;font-variant:normal;font-weight:normal;font-stretch:normal;font-family:Arial;-inkscape-font-specification:Arial;fill:#1a1a1a;stroke:none;stroke-width:1.96439648"
           id="path4693" />
        <path
           d="m 671.73903,198.74901 7.44322,1.87999 q -2.34039,9.16974 -8.44077,14.004 -6.062,4.79589 -14.84807,4.79589 -9.09301,0 -14.80971,-3.68324 -5.67834,-3.72162 -8.67097,-10.7428 -2.95427,-7.02118 -2.95427,-15.07828 0,-8.78607 3.33794,-15.30848 3.37631,-6.56078 9.55341,-9.93708 6.21548,-3.41468 13.6587,-3.41468 8.44077,0 14.19583,4.29712 5.75507,4.29712 8.01873,12.08564 l -7.32812,1.72652 q -1.95672,-6.13874 -5.67833,-8.93954 -3.72161,-2.8008 -9.36158,-2.8008 -6.48404,0 -10.8579,3.10774 -4.33548,3.10774 -6.10037,8.36403 -1.76489,5.21793 -1.76489,10.78117 0,7.17465 2.07183,12.54604 2.11019,5.33303 6.52241,7.98037 4.41222,2.64733 9.55341,2.64733 6.25384,0 10.58933,-3.60651 4.33548,-3.60651 5.87017,-10.70443 z"
           style="font-style:normal;font-variant:normal;font-weight:normal;font-stretch:normal;font-family:Arial;-inkscape-font-specification:Arial;fill:#1a1a1a;stroke:none;stroke-width:1.96439648"
           id="path4695" />
        <path
           d="m 688.54381,218.46971 v -56.2462 h 40.66915 v 6.63751 h -33.22593 v 17.22684 h 31.11574 v 6.59915 h -31.11574 v 19.14519 h 34.53041 v 6.63751 z"
           style="font-style:normal;font-variant:normal;font-weight:normal;font-stretch:normal;font-family:Arial;-inkscape-font-specification:Arial;fill:#1a1a1a;stroke:none;stroke-width:1.96439648"
           id="path4697" />
        <path
           d="m 752.19487,218.46971 21.60069,-56.2462 h 8.01872 l 23.02028,56.2462 h -8.47914 l -6.56077,-17.035 H 766.2756 l -6.17711,17.035 z m 16.22929,-23.09701 h 19.06846 l -5.87017,-15.57705 q -2.6857,-7.09792 -3.99018,-11.6636 -1.07428,5.40976 -3.031,10.74279 z"
           style="font-style:normal;font-variant:normal;font-weight:normal;font-stretch:normal;font-family:Arial;-inkscape-font-specification:Arial;fill:#1a1a1a;stroke:none;stroke-width:1.96439648"
           id="path4699" />
        <path
           d="m 810.78144,218.46971 v -56.2462 h 7.63506 l 29.54269,44.16056 v -44.16056 h 7.13628 v 56.2462 h -7.63506 l -29.54268,-44.19892 v 44.19892 z"
           style="font-style:normal;font-variant:normal;font-weight:normal;font-stretch:normal;font-family:Arial;-inkscape-font-specification:Arial;fill:#1a1a1a;stroke:none;stroke-width:1.96439648"
           id="path4701" />
        <path
           d="m 867.64156,218.46971 v -56.2462 h 19.3754 q 6.56078,0 10.01382,0.80571 4.83426,1.11265 8.24893,4.02855 4.45059,3.75998 6.63751,9.63014 2.2253,5.83181 2.2253,13.35176 0,6.40731 -1.49632,11.35667 -1.49632,4.94936 -3.83671,8.21057 -2.3404,3.22283 -5.1412,5.10282 -2.76243,1.84163 -6.71424,2.8008 -3.91345,0.95918 -9.01628,0.95918 z m 7.44323,-6.63751 h 12.00891 q 5.56323,0 8.70933,-1.03591 3.18447,-1.03592 5.06446,-2.9159 2.64733,-2.64734 4.10528,-7.09792 1.49632,-4.48896 1.49632,-10.8579 0,-8.82444 -2.9159,-13.54359 -2.87753,-4.75753 -7.02118,-6.36894 -2.99264,-1.15102 -9.63015,-1.15102 h -11.81707 z"
           style="font-style:normal;font-variant:normal;font-weight:normal;font-stretch:normal;font-family:Arial;-inkscape-font-specification:Arial;fill:#1a1a1a;stroke:none;stroke-width:1.96439648"
           id="path4703" />
        <path
           d="m 946.21743,218.46971 v -56.2462 h 21.21702 q 5.6016,0 8.55587,0.53714 4.14365,0.69061 6.94445,2.64733 2.8008,1.91836 4.48895,5.40977 1.72652,3.4914 1.72652,7.67342 0,7.17465 -4.56569,12.16238 -4.56568,4.94936 -16.49786,4.94936 h -14.42604 v 22.8668 z m 7.44322,-29.50432 h 14.54114 q 7.21302,0 10.24402,-2.68569 3.03101,-2.6857 3.03101,-7.55833 0,-3.52977 -1.80326,-6.02364 -1.76489,-2.53223 -4.68079,-3.33794 -1.87999,-0.49877 -6.94445,-0.49877 h -14.38767 z"
           style="font-style:normal;font-variant:normal;font-weight:normal;font-stretch:normal;font-family:Arial;-inkscape-font-specification:Arial;fill:#1a1a1a;stroke:none;stroke-width:1.96439648"
           id="path4705" />
        <path
           d="m 998.85711,218.46971 v -56.2462 h 40.66919 v 6.63751 h -33.226 v 17.22684 h 31.1158 v 6.59915 h -31.1158 v 19.14519 h 34.5304 v 6.63751 z"
           style="font-style:normal;font-variant:normal;font-weight:normal;font-stretch:normal;font-family:Arial;-inkscape-font-specification:Arial;fill:#1a1a1a;stroke:none;stroke-width:1.96439648"
           id="path4707" />
        <path
           d="m 1045.0127,218.46971 21.6007,-56.2462 h 8.0188 l 23.0202,56.2462 h -8.4791 l -6.5608,-17.035 h -23.519 l -6.1771,17.035 z m 16.2293,-23.09701 h 19.0685 l -5.8702,-15.57705 q -2.6857,-7.09792 -3.9902,-11.6636 -1.0742,5.40976 -3.031,10.74279 z"
           style="font-style:normal;font-variant:normal;font-weight:normal;font-stretch:normal;font-family:Arial;-inkscape-font-specification:Arial;fill:#1a1a1a;stroke:none;stroke-width:1.96439648"
           id="path4709" />
        <path
           d="m 1143.8081,198.74901 7.4432,1.87999 q -2.3404,9.16974 -8.4407,14.004 -6.062,4.79589 -14.8481,4.79589 -9.093,0 -14.8097,-3.68324 -5.6783,-3.72162 -8.671,-10.7428 -2.9542,-7.02118 -2.9542,-15.07828 0,-8.78607 3.3379,-15.30848 3.3763,-6.56078 9.5534,-9.93708 6.2155,-3.41468 13.6587,-3.41468 8.4408,0 14.1958,4.29712 5.7551,4.29712 8.0188,12.08564 l -7.3282,1.72652 q -1.9567,-6.13874 -5.6783,-8.93954 -3.7216,-2.8008 -9.3616,-2.8008 -6.484,0 -10.8579,3.10774 -4.3354,3.10774 -6.1003,8.36403 -1.7649,5.21793 -1.7649,10.78117 0,7.17465 2.0718,12.54604 2.1102,5.33303 6.5224,7.98037 4.4122,2.64733 9.5534,2.64733 6.2539,0 10.5894,-3.60651 4.3354,-3.60651 5.8701,-10.70443 z"
           style="font-style:normal;font-variant:normal;font-weight:normal;font-stretch:normal;font-family:Arial;-inkscape-font-specification:Arial;fill:#1a1a1a;stroke:none;stroke-width:1.96439648"
           id="path4711" />
        <path
           d="m 1160.6129,218.46971 v -56.2462 h 40.6692 v 6.63751 h -33.226 v 17.22684 h 31.1158 v 6.59915 h -31.1158 v 19.14519 h 34.5304 v 6.63751 z"
           style="font-style:normal;font-variant:normal;font-weight:normal;font-stretch:normal;font-family:Arial;-inkscape-font-specification:Arial;fill:#1a1a1a;stroke:none;stroke-width:1.96439648"
           id="path4713" />
      </g>
    </g>
  </g>
</svg>
